# xmcd
#
# Track frame offsets:
#	183
#	16695
#	44433
#
# Disc length: 1110 seconds
#
# Revision: 5
# Processed by: cddbd v1.5.2PL0 Copyright (c) Steve Scherf et al.
# Submitted via: EZCDAudioConverter 1.3.4.1
#
DISCID=18045403
DTITLE=Yello - Jungle Bill
DYEAR=1992
DGENRE=
TTITLE0=Jungle Bill [Single]
TTITLE1=Jungle Bill
TTITLE2=Jungle Bill [Chicken Dive Mix]
EXTD=
EXTT0=
EXTT1=
EXTT2=
PLAYORDER=
